<svg xmlns="http://www.w3.org/2000/svg" viewBox="0 0 1024 1024" width="1024" height="1024" role="img" aria-labelledby="t">
  <title id="t">Sınıf Defteri — Android tek renk (temalı)</title>
  <g transform="translate(150.53 150.53) scale(0.706)"><path fill="#000000" fill-rule="evenodd" d="M346 160 H756 A72 72 0 0 1 828 232 V734 L698 864 H346 A16 16 0 0 1 330 848 V176 A16 16 0 0 1 346 160ZM268 160 H292 A16 16 0 0 1 308 176 V848 A16 16 0 0 1 292 864 H268 A72 72 0 0 1 196 792 V232 A72 72 0 0 1 268 160ZM409 316 A72 72 0 1 1 553 316 A72 72 0 1 1 409 316ZM605 316 A72 72 0 1 1 749 316 A72 72 0 1 1 605 316ZM409 512 A72 72 0 1 1 553 512 A72 72 0 1 1 409 512ZM605 512 A72 72 0 1 1 749 512 A72 72 0 1 1 605 512ZM409 708 A72 72 0 1 1 553 708 A72 72 0 1 1 409 708ZM605 708 A72 72 0 1 1 749 708 A72 72 0 1 1 605 708Z"/></g>
</svg>
